<?xml version="1.0" standalone="no"?>
<!DOCTYPE svg PUBLIC "-//W3C//DTD SVG 20010904//EN"
 "http://www.w3.org/TR/2001/REC-SVG-20010904/DTD/svg10.dtd">
<svg version="1.0" xmlns="http://www.w3.org/2000/svg"
 width="311.000000pt" height="76.000000pt" viewBox="0 0 311.000000 76.000000"
 preserveAspectRatio="xMidYMid meet">

<g transform="translate(0.000000,76.000000) scale(0.100000,-0.100000)"
fill="#000000" stroke="none">
<path d="M920 583 c-62 -20 -100 -68 -100 -125 0 -46 17 -67 81 -97 44 -21 55
-31 57 -54 2 -16 -2 -35 -9 -43 -16 -19 -65 -18 -100 3 -27 16 -29 16 -49 -2
-27 -25 -25 -32 13 -55 42 -26 121 -27 162 -1 44 26 71 91 59 139 -8 31 -17
41 -64 65 -76 38 -86 50 -72 81 15 34 52 42 93 21 32 -17 33 -17 51 5 22 27
19 33 -26 54 -34 16 -67 19 -96 9z"/>
<path d="M2508 576 c-58 -21 -85 -42 -113 -90 -50 -85 -43 -205 15 -261 23
-22 41 -29 84 -33 91 -7 170 32 142 70 -12 16 -15 16 -52 -2 -21 -11 -46 -20
-56 -20 -57 0 -98 55 -98 132 0 113 105 191 190 141 24 -14 31 -14 44 -4 26
22 18 41 -26 61 -50 23 -79 24 -130 6z"/>
<path d="M106 548 c-3 -18 -13 -94 -21 -168 -9 -74 -18 -147 -21 -163 -5 -26
-4 -27 34 -27 l40 0 6 57 c12 102 16 113 40 113 17 0 30 -17 64 -85 l42 -85
45 0 46 0 -55 107 -55 106 62 76 c33 42 65 82 70 89 7 9 -1 12 -34 12 -43 0
-45 -2 -106 -80 -88 -112 -103 -107 -84 28 l7 52 -37 0 c-35 0 -38 -2 -43 -32z"/>
<path d="M460 575 c0 -3 -7 -64 -16 -135 -18 -148 -12 -183 37 -225 42 -34
130 -36 179 -2 62 41 75 79 104 315 l7 52 -41 0 c-26 0 -40 -5 -40 -13 0 -58
-32 -254 -45 -274 -21 -31 -57 -47 -90 -39 -43 11 -50 41 -36 173 7 65 14 126
17 136 5 14 -1 17 -35 17 -23 0 -41 -2 -41 -5z"/>
<path d="M1126 543 c-3 -21 -13 -99 -21 -173 -9 -74 -18 -145 -20 -157 -5 -21
-2 -23 34 -23 39 0 39 0 45 48 4 26 9 64 12 85 l6 37 80 0 80 0 -6 -27 c-2
-16 -8 -54 -11 -86 l-6 -57 38 0 39 0 22 183 c12 100 22 188 22 195 0 9 -12
12 -37 10 l-38 -3 -10 -80 -10 -80 -79 -3 -78 -3 6 68 c4 37 10 76 12 86 5 14
-1 17 -34 17 -39 0 -40 -1 -46 -37z"/>
<path d="M1502 398 c-12 -101 -22 -189 -22 -196 0 -9 12 -12 38 -10 l37 3 17
140 c9 77 19 164 23 193 l6 52 -38 0 -39 0 -22 -182z"/>
<path d="M1780 555 c0 -23 3 -25 50 -25 60 0 57 13 31 -197 l-17 -143 32 0
c38 0 36 -8 60 198 l17 142 54 0 c29 0 53 4 53 9 0 5 3 16 6 25 5 14 -11 16
-140 16 l-146 0 0 -25z"/>
<path d="M2120 573 c0 -13 -39 -325 -45 -355 l-4 -28 114 0 c63 0 115 4 115 9
0 5 3 16 6 25 5 14 -5 16 -76 16 l-83 0 7 46 c3 26 6 53 6 60 0 10 17 14 65
14 63 0 65 1 65 25 0 24 -3 25 -61 25 l-62 0 7 38 c3 20 6 47 6 60 0 21 4 22
79 22 78 0 91 6 91 41 0 5 -52 9 -115 9 -63 0 -115 -3 -115 -7z"/>
<path d="M2745 568 c-4 -13 -45 -347 -45 -367 0 -6 15 -11 34 -11 l34 0 6 67
c11 109 5 103 102 103 77 0 85 -2 80 -17 -2 -10 -8 -48 -12 -86 l-6 -67 34 0
34 0 22 188 c12 103 22 190 22 195 0 4 -15 7 -34 7 l-34 0 -6 -67 c-11 -109
-6 -103 -98 -103 l-80 0 7 85 7 85 -31 0 c-18 0 -33 -6 -36 -12z"/>
<path d="M1628 245 c-14 -30 3 -55 37 -55 12 0 28 7 35 15 20 24 -3 65 -35 65
-17 0 -29 -8 -37 -25z"/>
</g>
</svg>
